<svg width="22" height="25" viewBox="0 0 22 25" fill="none" xmlns="http://www.w3.org/2000/svg">
<path d="M5.91895 24.0078H16.0918C17.5527 24.0078 18.4014 23.2344 18.4658 21.7842L19.1533 6.24023H20.6465C21.1729 6.24023 21.5918 5.83203 21.5918 5.29492C21.5918 4.76855 21.1729 4.36035 20.6465 4.36035H15.9736V2.74902C15.9736 1.04102 14.8672 0.0205078 13.0303 0.0205078H8.94824C7.11133 0.0205078 6.01562 1.04102 6.01562 2.74902V4.36035H1.35352C0.837891 4.36035 0.408203 4.76855 0.408203 5.29492C0.408203 5.83203 0.837891 6.24023 1.35352 6.24023H2.86816L3.54492 21.7842C3.60938 23.2344 4.45801 24.0078 5.91895 24.0078ZM8.22852 2.8457C8.22852 2.3623 8.56152 2.04004 9.09863 2.04004H12.8906C13.4385 2.04004 13.7715 2.3623 13.7715 2.8457V4.36035H8.22852V2.8457ZM7.5625 20.7422C7.13281 20.7422 6.83203 20.4629 6.82129 20.0332L6.49902 8.59277C6.48828 8.17383 6.77832 7.88379 7.22949 7.88379C7.65918 7.88379 7.95996 8.16309 7.9707 8.59277L8.29297 20.0332C8.30371 20.4521 8.01367 20.7422 7.5625 20.7422ZM11 20.7422C10.5596 20.7422 10.248 20.4521 10.248 20.0332V8.59277C10.248 8.17383 10.5596 7.88379 11 7.88379C11.4512 7.88379 11.752 8.17383 11.752 8.59277V20.0332C11.752 20.4521 11.4512 20.7422 11 20.7422ZM14.4375 20.7422C13.9863 20.7422 13.6963 20.4521 13.707 20.0332L14.0293 8.59277C14.04 8.16309 14.3408 7.89453 14.7705 7.89453C15.2217 7.89453 15.5117 8.17383 15.501 8.60352L15.1787 20.0332C15.168 20.4629 14.8672 20.7422 14.4375 20.7422Z" fill="white"/>
</svg>
