<svg width="24" height="19" viewBox="0 0 24 19" fill="none" xmlns="http://www.w3.org/2000/svg">
<path d="M4.01172 18.9531H20.2324C22.0977 18.9531 23.1816 17.8691 23.1816 15.7793V5.74023C23.1816 3.65039 22.0879 2.56641 19.9785 2.56641H10.8965C10.1934 2.56641 9.7832 2.40039 9.24609 1.96094L8.67969 1.51172C7.99609 0.945312 7.48828 0.759766 6.47266 0.759766H3.70898C1.88281 0.759766 0.808594 1.82422 0.808594 3.875V15.7793C0.808594 17.8691 1.90234 18.9531 4.01172 18.9531ZM2.72266 4.04102C2.72266 3.14258 3.21094 2.67383 4.08984 2.67383H5.96484C6.6582 2.67383 7.05859 2.83008 7.60547 3.2793L8.17188 3.73828C8.8457 4.29492 9.37305 4.48047 10.3887 4.48047H19.8711C20.7695 4.48047 21.2676 4.94922 21.2676 5.90625V6.47266H2.72266V4.04102ZM4.12891 17.0391C3.2207 17.0391 2.72266 16.5703 2.72266 15.623V8.16211H21.2676V15.623C21.2676 16.5703 20.7695 17.0391 19.8711 17.0391H4.12891Z" fill="black" fill-opacity="0.2"/>
</svg>
