<svg width="21" height="16" viewBox="0 0 21 16" fill="none" xmlns="http://www.w3.org/2000/svg">
<path d="M1.86719 3.33984C2.61914 3.33984 3.23438 2.72461 3.23438 1.96289C3.23438 1.21094 2.61914 0.595703 1.86719 0.595703C1.10547 0.595703 0.490234 1.21094 0.490234 1.96289C0.490234 2.72461 1.10547 3.33984 1.86719 3.33984ZM6.42773 2.89062H19.6992C20.2168 2.89062 20.627 2.48047 20.627 1.96289C20.627 1.44531 20.2168 1.03516 19.6992 1.03516H6.42773C5.91016 1.03516 5.5 1.44531 5.5 1.96289C5.5 2.48047 5.91016 2.89062 6.42773 2.89062ZM1.86719 9.33594C2.61914 9.33594 3.23438 8.7207 3.23438 7.95898C3.23438 7.20703 2.61914 6.5918 1.86719 6.5918C1.10547 6.5918 0.490234 7.20703 0.490234 7.95898C0.490234 8.7207 1.10547 9.33594 1.86719 9.33594ZM6.42773 8.88672H19.6992C20.2168 8.88672 20.627 8.47656 20.627 7.95898C20.627 7.44141 20.2168 7.03125 19.6992 7.03125H6.42773C5.91016 7.03125 5.5 7.44141 5.5 7.95898C5.5 8.47656 5.91016 8.88672 6.42773 8.88672ZM1.86719 15.332C2.61914 15.332 3.23438 14.7168 3.23438 13.9551C3.23438 13.2031 2.61914 12.5879 1.86719 12.5879C1.10547 12.5879 0.490234 13.2031 0.490234 13.9551C0.490234 14.7168 1.10547 15.332 1.86719 15.332ZM6.42773 14.8828H19.6992C20.2168 14.8828 20.627 14.4727 20.627 13.9551C20.627 13.4375 20.2168 13.0273 19.6992 13.0273H6.42773C5.91016 13.0273 5.5 13.4375 5.5 13.9551C5.5 14.4727 5.91016 14.8828 6.42773 14.8828Z" fill="black" fill-opacity="0.2"/>
</svg>
