<svg width="23" height="23" viewBox="0 0 23 23" fill="none" xmlns="http://www.w3.org/2000/svg">
<path d="M11.5 22.4482C17.6445 22.4482 22.7041 17.3887 22.7041 11.2441C22.7041 5.11035 17.6338 0.0400391 11.4893 0.0400391C5.35547 0.0400391 0.295898 5.11035 0.295898 11.2441C0.295898 17.3887 5.35547 22.4482 11.5 22.4482ZM11.5 19.9883C6.65527 19.9883 2.7666 16.0889 2.7666 11.2441C2.7666 6.39941 6.64453 2.5 11.4893 2.5C16.3447 2.5 20.2334 6.39941 20.2441 11.2441C20.2549 16.0889 16.3447 19.9883 11.5 19.9883ZM6.83789 11.2549C6.83789 11.8779 7.28906 12.3291 7.92285 12.3291H10.4043V14.8213C10.4043 15.4443 10.8555 15.8955 11.4785 15.8955C12.123 15.8955 12.5742 15.4551 12.5742 14.8213V12.3291H15.0771C15.7002 12.3291 16.1514 11.8779 16.1514 11.2549C16.1514 10.6104 15.7002 10.1592 15.0771 10.1592H12.5742V7.66699C12.5742 7.0332 12.123 6.58203 11.4785 6.58203C10.8555 6.58203 10.4043 7.0332 10.4043 7.66699V10.1592H7.92285C7.27832 10.1592 6.83789 10.6104 6.83789 11.2549Z" fill="black"/>
</svg>
